<?xml version="1.0" ?><svg xmlns="http://www.w3.org/2000/svg" width="64" height="64" viewBox="0 0 64 64" fill="none"><path d="M50 39L56.33 36.69C59.04 33.71 60.55 31.23 59.46 29.69C58.53 28.39 55.38 27.18 50.93 27.69C47.8 28.05 43.16 27.93 33.87 27.69C22.26 27.39 19.48 26.29 12.54 27.69C9.96003 28.21 4.25003 29.37 4.01003 31.69C3.85003 33.25 6.17003 38.05 8.28003 38.69C10.17 39.26 12.01 39 12.01 39H50.01H50Z" fill="#DE1C85"/><g opacity="0.3"><path d="M12.5399 29.69C19.4799 28.29 22.2599 29.39 33.8699 29.69C43.1599 29.93 47.8099 30.05 50.9299 29.69C55.3899 29.17 58.5399 30.39 59.4599 31.69C59.5199 31.77 59.5599 31.86 59.6099 31.94C59.9099 31.06 59.8899 30.3 59.4599 29.69C58.5299 28.39 55.3799 27.18 50.9299 27.69C47.7999 28.05 43.1599 27.93 33.8699 27.69C22.2599 27.39 19.4799 26.29 12.5399 27.69C9.95991 28.21 4.24991 29.37 4.00991 31.69C3.96991 32.02 4.05991 32.51 4.22991 33.07C5.30991 31.16 10.2099 30.16 12.5399 29.69Z" fill="white"/></g><path d="M10.9201 40.06C10.1401 40.06 9.0701 39.98 7.9801 39.65C5.2901 38.83 2.81011 33.48 3.01011 31.59C3.29011 28.91 7.6601 27.66 12.3401 26.72C17.1101 25.75 20.0201 25.95 24.8301 26.26C27.1601 26.41 30.0701 26.6 33.9001 26.7C36.9801 26.78 38.7001 26.86 39.8301 26.91C41.2501 26.9766 43.0968 26.92 45.3701 26.74L45.8601 26.7C53.6301 26.11 58.7501 26.96 60.2801 29.12C61.9501 31.47 59.4401 34.76 57.0701 37.37C56.9601 37.49 56.8201 37.58 56.6701 37.64L50.3401 39.95C50.2301 39.99 50.1101 40.01 50.0001 40.01H12.0601C11.8901 40.03 11.4801 40.07 10.9201 40.07V40.06ZM19.2001 28C17.1601 28 15.2401 28.17 12.7401 28.68C6.4901 29.94 5.08011 31.08 5.00011 31.8C4.88011 32.9 6.9701 37.25 8.5601 37.74C10.1901 38.24 11.8401 38.02 11.8501 38.01C11.9001 38.01 11.9401 38.01 11.9901 38.01H49.8101L55.7401 35.85C59.0601 32.15 58.9801 30.78 58.6301 30.29C58.4601 30.04 56.6001 27.89 45.9901 28.71L45.5001 28.75C42.0001 29.02 41.9501 29.02 39.7201 28.92C38.5901 28.87 36.8901 28.79 33.8301 28.71C29.9601 28.61 27.0401 28.42 24.6801 28.27C22.5401 28.13 20.8201 28.02 19.1801 28.02L19.2001 28Z" fill="#2E1051"/><path d="M6 37C4.9 37 4 36.1 4 35C4 33.9 4.9 33 6 33H7C8.1 33 9 33.9 9 35C9 36.1 8.1 37 7 37H6Z" fill="#2CCBD1"/><g opacity="0.3"><path d="M7.00003 33H6.00003C5.26003 33 4.62003 33.4 4.28003 34C4.63003 34.6 5.26003 35 6.00003 35H7.00003C7.74003 35 8.38003 34.6 8.72003 34C8.37003 33.4 7.74003 33 7.00003 33Z" fill="white"/></g><path d="M33.87 27.69C35.73 27.74 37.39 27.78 38.91 27.82C38.75 27.44 37.42 24.71 30 21C30 21 30 25 26 27V27.33C28.14 27.47 30.66 27.61 33.87 27.69Z" fill="#2CCBD1"/><g opacity="0.3"><path d="M31.7801 27.63L35.2801 24.13C34.7801 23.77 34.2201 23.39 33.5801 23L29.0601 27.52C29.9001 27.56 30.8001 27.6 31.7701 27.64L31.7801 27.63Z" fill="white"/></g><path d="M38.91 28.8199H38.89L33.85 28.6899C30.64 28.6099 28.15 28.4699 25.94 28.3199C25.41 28.2899 25 27.8499 25 27.3199V26.9899C25 26.6099 25.21 26.2599 25.55 26.0999C28.92 24.4099 29 21.1299 29 20.9899C29 20.6499 29.19 20.3199 29.48 20.1399C29.77 19.9599 30.14 19.9399 30.45 20.0999C37.89 23.8199 39.52 26.6599 39.83 27.4399C39.96 27.7499 39.92 28.1099 39.73 28.3899C39.54 28.6599 39.23 28.8199 38.91 28.8199ZM33.9 26.6899L36.89 26.7699C35.91 25.7699 34.09 24.2899 30.78 22.5299C30.51 23.6399 29.89 25.1699 28.49 26.4799C30.07 26.5699 31.83 26.6399 33.89 26.6999L33.9 26.6899Z" fill="#2E1051"/><path d="M32.6 32.75C30.93 33.27 27.99 34.21 28 35.43C28.02 37.3 35.05 38.62 37.2 39H48V31.28C38.93 30.43 35.95 31.71 32.6 32.75Z" fill="white"/><g opacity="0.3"><path d="M32.6 32.75C30.93 33.27 27.99 34.21 28 35.43C28 35.78 28.25 36.11 28.67 36.42C29.63 35.69 31.43 35.12 32.6 34.75C35.95 33.71 38.93 32.43 48 33.28V31.28C38.93 30.43 35.95 31.71 32.6 32.75Z" fill="#2E1051"/></g><path d="M48.0001 40.0001H36.2001C36.1401 40.0001 36.0801 40.0001 36.0301 39.9801C26.0301 38.2301 26.0101 36.2701 26.0001 35.4401C25.9801 33.6101 28.6101 32.6301 31.3001 31.8001L31.4101 31.7701C34.7601 30.7301 38.9201 29.4301 48.0901 30.2901C48.6001 30.3401 49.0001 30.7701 49.0001 31.2901V39.0101C49.0001 39.5601 48.5501 40.0101 48.0001 40.0101V40.0001ZM36.2901 38.0001H47.0001V32.1901C38.8701 31.5301 35.2301 32.6601 32.0101 33.6701L31.9001 33.7001C29.0401 34.5901 28.2401 35.1301 28.0401 35.4101C28.3801 35.8401 30.3401 36.9501 36.2901 37.9901V38.0001Z" fill="#2E1051"/><path d="M22 40H12C11.45 40 11 39.55 11 39V36C11 32.69 13.69 30 17 30C20.31 30 23 32.69 23 36V39C23 39.55 22.55 40 22 40ZM13 38H21V36C21 33.79 19.21 32 17 32C14.79 32 13 33.79 13 36V38Z" fill="#2E1051"/><path d="M7 38H6C4.35 38 3 36.65 3 35C3 33.35 4.35 32 6 32H7C8.65 32 10 33.35 10 35C10 36.65 8.65 38 7 38ZM6 34C5.45 34 5 34.45 5 35C5 35.55 5.45 36 6 36H7C7.55 36 8 35.55 8 35C8 34.45 7.55 34 7 34H6Z" fill="#2E1051"/><path d="M57 37C55.9 37 55 36.1 55 35C55 33.9 55.9 33 57 33H58C59.1 33 60 33.9 60 35C60 36.1 59.1 37 58 37H57Z" fill="#2CCBD1"/><g opacity="0.3"><path d="M58 33H57C56.26 33 55.62 33.4 55.28 34C55.63 34.6 56.26 35 57 35H58C58.74 35 59.38 34.6 59.72 34C59.37 33.4 58.74 33 58 33Z" fill="white"/></g><path d="M58 38H57C55.35 38 54 36.65 54 35C54 33.35 55.35 32 57 32H58C59.65 32 61 33.35 61 35C61 36.65 59.65 38 58 38ZM57 34C56.45 34 56 34.45 56 35C56 35.55 56.45 36 57 36H58C58.55 36 59 35.55 59 35C59 34.45 58.55 34 58 34H57Z" fill="#2E1051"/><path d="M44 34.5H40C39.45 34.5 39 34.05 39 33.5C39 32.95 39.45 32.5 40 32.5H44C44.55 32.5 45 32.95 45 33.5C45 34.05 44.55 34.5 44 34.5Z" fill="#2E1051"/><path d="M44 37.5H40C39.45 37.5 39 37.05 39 36.5C39 35.95 39.45 35.5 40 35.5H44C44.55 35.5 45 35.95 45 36.5C45 37.05 44.55 37.5 44 37.5Z" fill="#2E1051"/><path d="M16.8198 41C19.5812 41 21.8198 38.7614 21.8198 36C21.8198 33.2386 19.5812 31 16.8198 31C14.0584 31 11.8198 33.2386 11.8198 36C11.8198 38.7614 14.0584 41 16.8198 41Z" fill="#2CCBD1"/><g opacity="0.3"><path d="M13.8198 38C13.8198 35.24 16.0598 33 18.8198 33C19.6798 33 20.4898 33.24 21.1898 33.63C20.3398 32.07 18.7098 31 16.8198 31C14.0598 31 11.8198 33.24 11.8198 36C11.8198 37.9 12.8898 39.53 14.4498 40.37C14.0598 39.66 13.8198 38.86 13.8198 38Z" fill="#2E1051"/></g><path d="M16.8198 34C17.6483 34 18.3198 33.3284 18.3198 32.5C18.3198 31.6716 17.6483 31 16.8198 31C15.9914 31 15.3198 31.6716 15.3198 32.5C15.3198 33.3284 15.9914 34 16.8198 34Z" fill="#2E1051"/><path d="M13.49 36.4202C14.3184 36.4202 14.99 35.7486 14.99 34.9202C14.99 34.0917 14.3184 33.4202 13.49 33.4202C12.6616 33.4202 11.99 34.0917 11.99 34.9202C11.99 35.7486 12.6616 36.4202 13.49 36.4202Z" fill="#2E1051"/><path d="M14.76 40.3301C15.5884 40.3301 16.26 39.6585 16.26 38.8301C16.26 38.0017 15.5884 37.3301 14.76 37.3301C13.9316 37.3301 13.26 38.0017 13.26 38.8301C13.26 39.6585 13.9316 40.3301 14.76 40.3301Z" fill="#2E1051"/><path d="M18.8699 40.3301C19.6983 40.3301 20.3699 39.6585 20.3699 38.8301C20.3699 38.0017 19.6983 37.3301 18.8699 37.3301C18.0414 37.3301 17.3699 38.0017 17.3699 38.8301C17.3699 39.6585 18.0414 40.3301 18.8699 40.3301Z" fill="#2E1051"/><path d="M20.1499 36.4202C20.9783 36.4202 21.6499 35.7486 21.6499 34.9202C21.6499 34.0917 20.9783 33.4202 20.1499 33.4202C19.3215 33.4202 18.6499 34.0917 18.6499 34.9202C18.6499 35.7486 19.3215 36.4202 20.1499 36.4202Z" fill="#2E1051"/><path d="M16.8098 42C15.8798 42 14.9498 41.78 14.0898 41.34C12.6598 40.61 11.5998 39.37 11.1098 37.85C10.0898 34.7 11.8198 31.31 14.9598 30.29C18.1098 29.27 21.4998 31 22.5198 34.14C23.0198 35.66 22.8898 37.29 22.1598 38.72C21.4298 40.15 20.1898 41.21 18.6698 41.7C18.0598 41.9 17.4298 42 16.8098 42ZM16.8098 32C16.3998 32 15.9898 32.06 15.5798 32.2C13.4798 32.88 12.3298 35.14 13.0098 37.24C13.3398 38.26 14.0498 39.08 14.9998 39.57C15.9498 40.06 17.0398 40.14 18.0498 39.81C19.0698 39.48 19.8898 38.77 20.3798 37.82C20.8698 36.87 20.9498 35.78 20.6198 34.77C20.0698 33.08 18.4998 32.01 16.8098 32.01V32Z" fill="white"/><path d="M16.8199 43.0001C13.8699 43.0001 11.1199 41.1201 10.1599 38.1601C8.96991 34.4901 10.9799 30.5301 14.6499 29.3401C18.3199 28.1501 22.2799 30.1601 23.4699 33.8301C24.6599 37.5001 22.6499 41.4601 18.9799 42.6501C18.2599 42.8801 17.5399 42.9901 16.8199 42.9901V43.0001ZM16.8099 31.0001C16.2999 31.0001 15.7799 31.0801 15.2699 31.2501C12.6499 32.1001 11.2099 34.9301 12.0599 37.5501C12.9099 40.1701 15.7399 41.6101 18.3599 40.7601C19.6299 40.3501 20.6599 39.4601 21.2699 38.2701C21.8799 37.0801 21.9799 35.7301 21.5699 34.4601C20.8799 32.3501 18.9199 31.0001 16.8099 31.0001Z" fill="#2E1051"/><path d="M16.8198 37C17.3721 37 17.8198 36.5523 17.8198 36C17.8198 35.4477 17.3721 35 16.8198 35C16.2675 35 15.8198 35.4477 15.8198 36C15.8198 36.5523 16.2675 37 16.8198 37Z" fill="#2E1051"/><path d="M49 41C51.7614 41 54 38.7614 54 36C54 33.2386 51.7614 31 49 31C46.2386 31 44 33.2386 44 36C44 38.7614 46.2386 41 49 41Z" fill="#2CCBD1"/><path d="M49 37C49.5523 37 50 36.5523 50 36C50 35.4477 49.5523 35 49 35C48.4477 35 48 35.4477 48 36C48 36.5523 48.4477 37 49 37Z" fill="#2E1051"/><g opacity="0.3"><path d="M46 38C46 35.24 48.24 33 51 33C51.86 33 52.67 33.24 53.37 33.63C52.52 32.07 50.89 31 49 31C46.24 31 44 33.24 44 36C44 37.9 45.07 39.53 46.63 40.37C46.24 39.66 46 38.86 46 38Z" fill="#2E1051"/></g><path d="M49 34C49.8284 34 50.5 33.3284 50.5 32.5C50.5 31.6716 49.8284 31 49 31C48.1716 31 47.5 31.6716 47.5 32.5C47.5 33.3284 48.1716 34 49 34Z" fill="#2E1051"/><path d="M45.6702 36.4199C46.4986 36.4199 47.1702 35.7483 47.1702 34.9199C47.1702 34.0915 46.4986 33.4199 45.6702 33.4199C44.8417 33.4199 44.1702 34.0915 44.1702 34.9199C44.1702 35.7483 44.8417 36.4199 45.6702 36.4199Z" fill="#2E1051"/><path d="M46.9402 40.3298C47.7686 40.3298 48.4402 39.6583 48.4402 38.8298C48.4402 38.0014 47.7686 37.3298 46.9402 37.3298C46.1118 37.3298 45.4402 38.0014 45.4402 38.8298C45.4402 39.6583 46.1118 40.3298 46.9402 40.3298Z" fill="#2E1051"/><path d="M51.0601 40.3298C51.8885 40.3298 52.5601 39.6583 52.5601 38.8298C52.5601 38.0014 51.8885 37.3298 51.0601 37.3298C50.2316 37.3298 49.5601 38.0014 49.5601 38.8298C49.5601 39.6583 50.2316 40.3298 51.0601 40.3298Z" fill="#2E1051"/><path d="M52.3301 36.4199C53.1585 36.4199 53.8301 35.7483 53.8301 34.9199C53.8301 34.0915 53.1585 33.4199 52.3301 33.4199C51.5017 33.4199 50.8301 34.0915 50.8301 34.9199C50.8301 35.7483 51.5017 36.4199 52.3301 36.4199Z" fill="#2E1051"/><path d="M49 42C46.47 42 44.11 40.39 43.29 37.85C42.27 34.7 44 31.31 47.14 30.29C48.66 29.79 50.29 29.92 51.72 30.65C53.15 31.38 54.21 32.62 54.7 34.14C55.72 37.29 53.99 40.68 50.85 41.7C50.24 41.9 49.61 41.99 49 41.99V42ZM49 31.99C48.58 31.99 48.17 32.06 47.76 32.19C45.66 32.87 44.51 35.13 45.19 37.23C45.87 39.33 48.13 40.48 50.23 39.8C51.25 39.47 52.07 38.76 52.56 37.81C53.05 36.86 53.13 35.77 52.8 34.76C52.47 33.74 51.76 32.92 50.81 32.43C50.24 32.14 49.62 31.99 49 31.99Z" fill="white"/><path d="M49.0101 43C46.0601 43 43.3101 41.12 42.3501 38.16C41.1601 34.49 43.1701 30.53 46.8401 29.34C48.6201 28.76 50.5201 28.91 52.1801 29.76C53.8501 30.61 55.0801 32.06 55.6601 33.83C56.8501 37.5 54.8401 41.46 51.1701 42.65C50.4501 42.88 49.7301 42.99 49.0101 42.99V43ZM49.0101 31C48.4901 31 47.9701 31.08 47.4601 31.25C44.8401 32.1 43.4001 34.93 44.2501 37.55C45.1001 40.17 47.9301 41.61 50.5501 40.76C51.8201 40.35 52.8501 39.46 53.4601 38.27C54.0701 37.08 54.1701 35.73 53.7601 34.46C53.3501 33.19 52.4701 32.16 51.2801 31.55C50.5701 31.19 49.7901 31 49.0201 31H49.0101Z" fill="#2E1051"/></svg>